<?xml version="1.0" encoding="utf-8"?>
<!-- Generator: Adobe Illustrator 23.0.4, SVG Export Plug-In . SVG Version: 6.00 Build 0)  -->
<svg version="1.1" id="Calque_1" xmlns="http://www.w3.org/2000/svg" xmlns:xlink="http://www.w3.org/1999/xlink" x="0px" y="0px"
	 viewBox="0 0 932 461" style="enable-background:new 0 0 932 461;" xml:space="preserve">
<g>
	<path d="M217.41,232.33c9.44-24.5,17.86-49.51,27.05-74c3.32-8.93,6.63-20.42,12.76-20.42c3.06,3.83,0.25,6.13-2.04,10.97
		c-10.21,23.74-21.69,60.23-31.9,85.49l-38.02,94.94c34.96,4.08,74,17.1,99.78,15.82c17.86-0.76,24.75-8.42,30.36-6.38
		c1.79,4.85,0.77,4.59-3.32,6.38c-20.16,8.93-40.32,7.4-61.75,3.06c-22.71-5.1-44.66-11.74-69.41-12.51
		c-24.5,27.05-43.13,3.58-22.71-4.08c6.89-2.29,12.76-2.04,19.9-3.06C192.4,299.19,205.16,264.23,217.41,232.33z M155.91,340.27
		c5.61,4.34,10.72-0.51,16.08-3.32c-1.02-0.51,2.55-3.32-8.68-0.51c-1.27,0.76-2.8,1.28-3.83,1.28L155.91,340.27z"/>
	<path d="M254.4,246.87c-2.04,5.1-4.08,9.7-5.61,14.55c-1.28,4.59-2.05,8.17-3.32,12.76c-0.77,4.08-0.77,7.65,0.51,10.46v0.25
		c1.28,0,2.55-0.51,4.59-2.04c2.04-1.28,4.85-3.32,7.4-5.61c2.05-2.05,4.59-3.83,6.38-6.13c2.04-2.55,4.34-4.59,6.13-6.63
		c0.25-1.28,0.51-2.3,0.76-3.57c0.51-1.53,1.02-2.55,1.28-3.06c0.51-1.53,1.28-3.06,1.53-4.59c0.25-1.02,0.77-2.29,1.28-3.57
		c2.55-2.81,4.08-4.09,6.13-3.57c1.79,0.25,3.06,1.53,3.32,2.8c0.51,1.79,0,4.09-1.53,7.4c-1.79,2.55-3.83,6.38-6.63,10.21
		c-0.77,3.06-1.28,6.89-1.28,10.21c0,3.06,1.02,5.62,3.06,6.89c1.79,1.27,4.33,1.27,6.63-0.26c3.06-1.53,5.61-3.83,8.17-5.87
		c2.04-2.3,4.59-4.59,6.38-6.89c1.53-2.3,2.29-3.58,2.29-3.58l5.36,4.09c-3.83,5.1-7.65,9.19-11.74,12.51
		c-2.8,2.8-6.63,5.1-10.72,6.38c-3.57,1.79-6.89,1.53-10.47-1.02c-1.53-1.53-3.06-3.57-3.83-5.62c-0.51-2.55-1.28-5.1-1.28-8.17
		c-2.55,2.55-4.85,5.11-6.63,7.15c-1.79,1.02-2.81,2.29-4.34,3.06c-1.79,1.53-2.8,2.29-4.08,3.32c-3.32,1.27-5.61,2.55-8.17,2.55
		c-2.81,0.25-5.36-1.28-6.13-4.33c-1.28-3.32-1.53-7.66-0.76-12.51c0.76-5.1,1.53-9.7,3.32-14.04c1.53-5.1,3.57-11.23,5.87-16.33
		L254.4,246.87z"/>
	<path d="M347.79,272.9c-1.53,0.76-3.57,1.53-7.14,3.32c-2.04,0.76-4.34,2.04-6.13,2.81c-2.29,1.28-4.59,2.55-7.14,3.06
		c-2.55,0.76-4.85,1.53-7.66,2.04c-2.81,0.25-5.62,0.51-8.17,0.51c-3.06,0-5.36-0.25-7.4-1.02c-2.04-0.77-4.08-2.05-4.85-4.85
		c-2.04-4.34-1.79-8.93,0.26-13.53c2.55-5.1,5.87-9.44,10.21-13.01c4.33-3.83,8.42-6.12,13.27-7.4c4.85-1.79,8.42-1.53,10.97,0.76
		c0,1.28-0.51,2.3-0.77,2.81c-0.25,1.28-0.76,1.53-1.28,1.79c-1.02,0-1.79,0.25-3.06,0.25c-0.77,0-2.05,0.51-4.09,1.02
		s-4.59,1.79-6.89,3.57c-2.81,1.28-4.85,2.81-6.89,5.36c-2.3,2.05-3.58,4.85-4.85,7.15c-1.28,2.8-1.53,5.87-0.77,8.67
		c4.34,1.79,8.67,2.29,12.51,1.53c4.34-1.02,8.17-1.79,11.48-3.83c3.83-1.79,7.4-3.58,10.72-5.62c3.32-1.53,6.13-2.04,9.19-1.79
		C349.84,270.35,349.58,272.39,347.79,272.9z"/>
	<path d="M361.57,285.92c-4.34,1.79-8.17,2.29-10.97,1.53c-3.32-1.28-5.36-3.06-6.63-5.87c-1.28-3.57-0.76-7.65,1.79-12.76
		c1.79-3.57,4.09-6.89,7.14-10.21c3.32-3.32,6.64-5.87,10.21-8.67c3.57-2.04,7.4-3.32,11.23-4.09c3.57-1.02,7.14-0.51,10.21,1.28
		c0,1.53,0,2.81-0.77,3.83c-0.25,0.51-1.02,1.02-2.04,1.02c-1.02,0.51-2.04,0.51-3.83,0.51c-1.79,0-3.06,0-5.1,0.51
		c-3.32,1.02-6.89,3.06-10.21,5.61c-3.06,2.81-5.87,5.36-7.65,8.42c-2.05,2.55-3.58,5.36-4.09,8.17c-0.76,2.3-0.76,4.09,0.51,4.85
		c0.77,1.02,3.32,1.02,5.87-0.25c2.81-1.28,7.14-3.83,12.51-8.17c1.79-1.53,2.8-2.81,4.59-4.33c1.53-1.79,3.06-3.32,3.83-4.34
		c1.79-1.53,2.81-2.81,4.08-3.06c1.53-0.51,2.81-0.25,4.09,0.76c0.51,1.28,0.51,2.3,0.51,3.58c-0.51,1.53-1.02,3.06-1.28,4.59
		c-0.76,1.28-1.53,3.32-2.55,5.36c-0.51,1.79-0.77,4.08-0.51,6.13c2.29,0.76,4.33,0.25,7.14-0.26c2.29-0.76,4.59-1.79,6.89-2.55
		c2.04-1.53,4.59-3.06,6.63-4.34c2.04-1.53,3.83-3.06,5.87-3.83c3.06,0.51,3.83,2.55,3.06,5.61c-1.79,1.02-4.59,2.55-6.89,4.34
		c-2.55,1.28-5.36,3.32-8.42,4.85c-2.8,1.53-5.87,2.55-8.67,3.57c-2.29,0.76-5.36,0.51-7.14-0.25c-1.02-0.25-2.3-1.28-3.06-2.04
		c-0.51-1.28-1.28-2.3-1.79-3.58c-0.51-1.53-0.77-2.8-1.28-4.33c-0.25,0-0.25,0-0.25-0.51c0,0-0.25,0-0.77,0
		C369.99,281.58,365.91,284.39,361.57,285.92z"/>
	<path d="M404.95,269.59h0.51c1.53-0.77,4.59-2.29,9.18-4.09c3.57-2.55,8.42-4.85,12.25-7.65v-1.28c-0.51-4.09,0.25-8.17,2.04-10.97
		c1.28-3.57,3.06-6.13,5.1-7.91c0.51-0.76,1.28-1.02,2.04-1.53c0.51-0.25,1.28-0.76,2.3-1.27c2.04-0.51,3.57-0.51,5.1,0
		c2.81,1.02,4.34,2.8,5.1,6.63c0.51,2.8-0.76,6.13-3.83,9.18c-2.81,3.32-6.38,6.38-10.72,9.95l0.51,4.34
		c0.26,1.53,0.77,2.55,1.02,4.09c0,1.53,0.25,3.06,0.25,4.08c2.3-0.51,4.34-1.02,6.38-1.79c1.79-0.25,3.57-0.76,5.62-2.04l6.38-2.04
		l5.1-1.28l2.04,5.61l-5.1,2.04l-6.38,2.55c-2.04,0.51-4.34,1.02-6.38,1.53c-2.81,0.76-5.36,1.28-8.17,1.79
		c-0.77,2.04-1.53,3.83-3.57,5.36c-1.53,1.53-4.34,2.81-7.4,4.34c-4.33,1.79-7.65,2.81-10.21,3.32c-2.55,0.25-4.34,0.25-5.61,0
		c-2.55-0.76-3.83-1.53-4.09-3.32c-0.51-1.53-0.51-2.81,0-4.85c0.25-1.79,2.55-3.32,7.4-5.1c5.1-1.79,10.46-2.55,16.33-4.59
		l1.27-0.25c0-1.79-0.25-4.85-1.27-8.17v-1.79c-4.34,2.55-8.17,4.59-12,6.89c-3.06,2.04-6.12,3.32-7.65,4.85L404.95,269.59z
		 M422.3,282.86c-1.53,0.51-3.32,0.77-5.1,1.53c-1.28,0.25-2.3,0.51-3.32,0.76c-1.02,0-2.3,0.26-3.32,0.77c0,0,0,0-0.51,0
		c-0.26,0-0.26,0-0.26,0c1.79,0.76,5.62-0.51,11.74-2.81L422.3,282.86z M440.17,247.64c1.79-1.79,2.29-3.58,2.04-4.85
		c-0.25-0.51-0.25-0.77-0.25-1.02c0,0,0-0.25-0.25-0.25c-0.25-0.77-0.77-0.77-1.28,0c-0.25,0-0.51,0.25-1.02,0.25
		c-0.51,0.25-0.76,0.51-1.27,0.76c-1.28,1.28-2.3,3.06-3.32,4.59c-0.77,1.53-1.02,3.83-1.28,6.13
		C436.08,251.21,438.63,249.17,440.17,247.64z"/>
	<path d="M465.32,290.46c-4.85,1.79-9.7,11.23-12.5,15.82c-8.93,13.01-26.8,38.02-41.6,43.38c-27.82,10.21-18.88-32.15,26.03-55.12
		c2.81-1.28,18.63-7.66,19.9-8.93c3.83-2.81,7.4-12.25,10.21-17.1l61.5-80.39c18.38-21.18,43.64-57.16,67.63-72.98
		c25.26-16.33,21.44,5.1,17.35,23.98c-2.8,15.31-6.38,29.6-10.21,44.66c-7.4,26.54-20.67,60.23-23.99,87.53
		c66.61-1.27,128.62,1.02,194.2,4.85c5.87,0.77,7.4,0,8.68,3.83c-2.55,4.59-4.09,3.32-10.21,2.55
		c-47.97-4.08-151.32-5.87-194.2-4.85c-13.27,57.16-3.83,39.3-3.83,50.53c-1.28,1.28-0.76,1.02-2.55,1.79
		c-15.57-2.04-2.05-41.34-0.77-52.31C543.92,277.7,487.77,282.3,465.32,290.46z M402.8,344.06c9.19,8.17,44.92-38.54,49-48.49
		C428.57,301.69,395.4,336.65,402.8,344.06z M517.63,274.64c18.38-1.79,36.5-1.53,54.87-3.32c3.32-13.01,5.87-25.77,9.7-38.79
		c6.13-24.76,30.37-97.23,27.31-116.37c-9.19,0.77-35.73,28.33-41.34,35.22l-72.73,90.59c-7.91,11.23-10.97,16.59-20.67,28.33
		c-2.81,3.06-5.61,8.42-7.4,12.76C484.71,280,498.49,276.69,517.63,274.64z"/>
	<path d="M618.41,267.5c-1.79-0.25-3.06-0.51-3.83-1.28c-1.27-0.51-1.79-1.02-1.79-1.79c-1.02-2.29-1.27-4.85-0.51-8.17
		c1.02-3.06,2.29-6.13,3.83-9.44c1.79-3.32,2.81-6.12,3.32-8.93v-0.51c-0.25,0-0.51,0.25-1.02,0.25c-0.25,0-0.51,0-1.02,0
		c-0.76,0.76-1.28,0.76-2.04,1.27c-0.77,0-1.28,0.26-2.55,0.51c-0.51,3.57-2.29,6.63-4.59,10.21c-2.05,3.06-5.62,5.61-10.21,8.17
		l-3.32-5.61c3.06-1.53,5.62-3.58,7.4-5.36c1.28-1.79,2.8-3.83,3.57-6.12c-4.34,0.51-7.66-0.77-8.93-3.32
		c-0.51-1.02-0.51-2.3-0.51-3.06c0.25-1.53,0.51-2.81,1.28-3.83c1.02-1.27,1.79-2.29,2.55-3.57c0.77-0.76,1.53-1.28,2.05-1.79
		c1.28-1.02,2.8-2.81,4.85-4.34c2.8-1.27,4.85-1.53,6.38-0.51c0.76,0.25,1.27,0.77,2.04,2.04c0.76,0.77,0.76,2.55,0,4.34l-0.25,2.81
		c0,0.25,0,1.02-0.25,1.27c0,0.51,0,0.77,0,1.02c0.51,0,1.02,0,1.02-0.25c2.3-0.25,4.34-0.77,5.36-0.77
		c1.53-0.25,2.3,0.26,3.58,1.02c0.76,1.02,1.53,2.55,1.53,3.32c0,1.53-0.26,2.55-0.77,4.34c-0.25,1.53-0.51,3.06-1.02,5.1
		c-1.02,1.28-1.79,3.06-2.3,5.1c-0.76,1.79-1.53,3.57-2.81,6.38c-1.02,2.29-1.27,4.34-1.02,5.36c1.79,0,3.06-0.51,6.13-1.79
		c2.29-1.28,5.1-2.29,7.91-4.08c2.55-1.79,5.36-3.32,8.17-4.85c2.55-2.55,5.1-4.09,7.4-5.87l3.83,4.85
		c-0.51,1.02-2.04,2.29-4.85,4.09c-3.06,2.04-5.61,4.08-8.67,6.12c-3.32,2.05-6.63,3.83-10.21,5.36c-3.32,1.27-6.63,2.29-8.93,2.29
		H618.41z M605.65,234.32c0.25,0,0.51,0,0.76-0.51c0.51,0,1.02,0,1.28,0c0.25-1.02,0.25-2.04,0.51-2.8c0-0.77,0.51-1.79,0.76-3.32
		v-0.26c-1.28,1.28-2.55,2.05-3.57,3.58c-1.28,1.27-2.04,2.29-2.81,3.57C604.12,234.58,604.63,234.32,605.65,234.32z"/>
	<path d="M673.27,201.91l-1.02,2.55c-1.53,3.06-3.06,6.89-4.08,10.47h1.53c4.34,0,8.17,0.25,10.97,0.76
		c0.25,1.79,0.25,3.57-0.25,3.83c-0.51,0.76-1.53,0.76-3.06,0.76l-11.48,0.25c-1.28,2.55-2.04,5.36-3.06,7.91
		c-2.81,8.17-5.1,15.06-7.14,21.44c-1.79,5.87-2.81,10.47-2.81,13.27c3.83-0.76,7.14-2.04,10.21-4.59c2.81-2.3,5.36-4.59,8.68-6.13
		c2.29-1.53,3.57-3.57,5.36-5.1c1.53-1.53,2.81-2.3,3.83-3.83c1.28-0.76,2.3-1.79,3.32-2.04c1.02-0.51,2.81-0.51,4.59-0.25
		c0.25,1.02,0.25,2.55-0.51,4.08c-0.77,1.53-2.04,2.81-3.57,4.59c-1.28,1.53-2.55,3.06-4.85,4.09c-1.79,1.79-3.83,3.32-5.62,4.59
		c-1.28,1.27-2.55,2.55-4.59,3.57c-1.53,1.53-3.83,2.55-5.61,3.57c-1.79,1.02-4.34,2.04-6.63,2.81c-2.55,1.27-4.59,1.53-6.89,1.27
		c-2.3-1.79-3.32-3.57-4.09-6.12c0-2.3,0-5.36,0.77-8.17c0-3.06,0.76-5.62,1.53-8.68c1.27-3.06,2.55-5.61,3.06-8.17
		c1.79-5.1,3.83-11.23,6.38-17.86l-13.78,0.26l1.53-5.36c2.81,0,6.63-0.25,10.21-0.25c1.53-0.25,2.81-0.25,4.34-0.25
		c2.04-4.34,4.08-8.67,5.87-13.01L673.27,201.91z"/>
	<path d="M736.04,249.13c-0.76,0.25-2.29,1.27-4.85,2.04l-25.01,11.23c-4.08,1.02-8.17,2.04-11.74,1.53
		c-3.06-0.51-6.13-1.28-7.66-3.32c-2.55-1.79-3.06-4.85-3.06-7.91c-0.51-3.06,0.51-6.63,3.32-10.46c2.05-3.32,4.59-6.13,7.15-8.43
		c3.32-2.8,6.38-4.59,9.18-6.12c3.06-1.53,5.87-2.05,8.42-2.05c2.3,0,4.34,0.51,5.87,2.55c1.79,2.55,1.28,5.1-0.76,7.66
		c-2.3,2.04-5.11,4.33-8.68,5.61c-3.83,2.04-6.63,3.32-10.46,4.59c-3.83,1.02-5.36,2.04-6.13,2.55c-1.28,3.58-1.28,6.13,0,6.89
		c1.53,1.27,3.57,1.79,6.13,1.53c2.81-0.26,5.87-1.28,9.95-2.3c3.83-2.04,6.89-3.32,10.72-4.59c3.83-2.04,7.4-3.57,10.21-4.85
		c3.06-0.76,5.1-1.27,6.38-1.02C736.3,246.57,736.3,248.61,736.04,249.13z M703.89,239.17c3.83-2.05,6.89-4.09,9.7-6.63
		c-0.26-2.05-1.28-2.55-3.32-1.79c-2.3,1.02-4.59,2.05-6.89,3.83c-2.29,1.53-4.85,3.32-6.38,4.85c-2.55,1.79-3.32,2.55-3.32,2.55
		C697.25,241.98,701.08,240.96,703.89,239.17z"/>
	<path d="M729.4,260.61c-0.51-3.06,0-7.15,0.51-10.97c1.53-14.8,5.1-48.49,11.23-74c2.8-9.7,5.1-18.63,7.91-24.75
		c3.32-7.4,7.4-11.74,12-11.48c21.69,3.32-19.9,97.22-25.27,109.99l-0.25,2.81v0.25c0,3.06,0.25,5.87,0.51,7.91
		c2.8,0.25,5.87-0.51,8.42-2.3c2.29-1.02,4.85-3.06,7.4-4.85c2.3-1.53,4.59-2.81,6.89-3.83c2.3-1.28,4.59-1.79,6.63-1.53
		c1.02,3.32,0.51,5.1-0.25,5.61c-0.51,0.51-2.55,1.53-4.59,2.55c-2.04,1.28-4.33,2.29-6.63,4.08c-2.55,1.53-4.59,2.55-7.14,3.83
		c-1.79,0.76-4.34,1.79-6.38,2.29s-4.08,0.51-5.61,0C731.44,266.73,729.66,264.69,729.4,260.61z M738.33,227.43
		c11.99-28.58,31.13-79.87,22.46-82.17c-1.79,0-4.09,3.32-6.13,7.91c-2.55,6.13-5.36,14.55-7.66,23.99
		C743.69,193.24,740.37,212.12,738.33,227.43z"/>
</g>
</svg>
